<svg xmlns="http://www.w3.org/2000/svg" width="128" height="128" viewBox="0 0 128 128">
  <defs>
    <linearGradient id="metal" x1="0" y1="0" x2=".3" y2="1"><stop stop-color="#fff3b5"/><stop offset=".46" stop-color="#e7ae3f"/><stop offset="1" stop-color="#9c5a17"/></linearGradient>
    <clipPath id="star"><path d="M64 8 80 43 119 47 91 74 98 113 64 94 30 113 37 74 9 47 48 43Z"/></clipPath>
  </defs>
  <path d="M64 8 80 43 119 47 91 74 98 113 64 94 30 113 37 74 9 47 48 43Z" transform="translate(0 4)" fill="#070e13" stroke="#070e13" stroke-width="8" stroke-linejoin="round" opacity=".8"/>
  <path d="M64 8 80 43 119 47 91 74 98 113 64 94 30 113 37 74 9 47 48 43Z" fill="url(#metal)" stroke="#482807" stroke-width="5" stroke-linejoin="round"/>
  <g clip-path="url(#star)">
    <path d="M64 8 64 65 48 43ZM119 47 64 65 80 43ZM98 113 64 65 91 74ZM30 113 64 65 64 94ZM9 47 64 65 37 74Z" fill="#ffe4a0" opacity=".3"/>
    <path d="M64 8 80 43 64 65ZM119 47 91 74 64 65ZM98 113 64 94 64 65ZM30 113 37 74 64 65ZM9 47 48 43 64 65Z" fill="#623a13" opacity=".2"/>
    <circle cx="36.7" cy="108.3" r="0.5" fill="#623a13" opacity="0.29"/>
<circle cx="22.5" cy="38.2" r="1.2" fill="#ffe4a0" opacity="0.20"/>
<circle cx="78.2" cy="59.0" r="0.8" fill="#ffe4a0" opacity="0.25"/>
<circle cx="33.2" cy="95.4" r="0.5" fill="#623a13" opacity="0.20"/>
<circle cx="16.0" cy="40.1" r="0.7" fill="#ffe4a0" opacity="0.33"/>
<circle cx="51.9" cy="25.1" r="0.6" fill="#ffe4a0" opacity="0.35"/>
<circle cx="20.3" cy="74.8" r="0.7" fill="#623a13" opacity="0.29"/>
<circle cx="47.8" cy="81.7" r="0.8" fill="#ffe4a0" opacity="0.28"/>
<circle cx="104.1" cy="71.0" r="0.5" fill="#ffe4a0" opacity="0.17"/>
<circle cx="108.6" cy="61.9" r="0.6" fill="#623a13" opacity="0.34"/>
<circle cx="71.9" cy="85.4" r="1.1" fill="#ffe4a0" opacity="0.21"/>
<circle cx="49.7" cy="100.1" r="0.5" fill="#ffe4a0" opacity="0.31"/>
<circle cx="23.8" cy="81.6" r="1.0" fill="#623a13" opacity="0.34"/>
<circle cx="98.3" cy="63.4" r="0.6" fill="#ffe4a0" opacity="0.19"/>
<circle cx="66.9" cy="64.0" r="0.5" fill="#ffe4a0" opacity="0.33"/>
<circle cx="64.7" cy="82.7" r="0.6" fill="#623a13" opacity="0.21"/>
<circle cx="15.2" cy="47.6" r="0.6" fill="#ffe4a0" opacity="0.24"/>
<circle cx="51.7" cy="95.8" r="1.1" fill="#ffe4a0" opacity="0.19"/>
<circle cx="53.6" cy="30.3" r="0.9" fill="#623a13" opacity="0.35"/>
<circle cx="34.2" cy="89.1" r="0.6" fill="#ffe4a0" opacity="0.16"/>
<circle cx="90.4" cy="47.5" r="0.5" fill="#ffe4a0" opacity="0.24"/>
<circle cx="37.2" cy="54.2" r="0.8" fill="#623a13" opacity="0.24"/>
<circle cx="72.9" cy="42.3" r="0.5" fill="#ffe4a0" opacity="0.18"/>
<circle cx="24.7" cy="65.1" r="0.7" fill="#ffe4a0" opacity="0.31"/>
<circle cx="64.5" cy="83.4" r="1.2" fill="#623a13" opacity="0.17"/>
<circle cx="15.7" cy="27.8" r="0.7" fill="#ffe4a0" opacity="0.27"/>
<circle cx="88.4" cy="48.4" r="1.2" fill="#ffe4a0" opacity="0.16"/>
<circle cx="97.6" cy="34.6" r="1.1" fill="#623a13" opacity="0.17"/>
<circle cx="110.5" cy="88.4" r="1.2" fill="#ffe4a0" opacity="0.27"/>
<circle cx="31.8" cy="109.0" r="0.8" fill="#ffe4a0" opacity="0.18"/>
<circle cx="74.5" cy="62.7" r="0.8" fill="#623a13" opacity="0.19"/>
<circle cx="26.2" cy="70.9" r="0.8" fill="#ffe4a0" opacity="0.18"/>
<circle cx="57.9" cy="85.1" r="1.0" fill="#ffe4a0" opacity="0.25"/>
<circle cx="53.4" cy="49.4" r="0.6" fill="#623a13" opacity="0.20"/>
<circle cx="58.6" cy="24.6" r="1.0" fill="#ffe4a0" opacity="0.29"/>
<circle cx="75.2" cy="16.2" r="0.7" fill="#ffe4a0" opacity="0.24"/>
<circle cx="23.3" cy="108.8" r="1.0" fill="#623a13" opacity="0.26"/>
<circle cx="84.5" cy="33.7" r="0.6" fill="#ffe4a0" opacity="0.26"/>
<circle cx="88.4" cy="77.4" r="0.4" fill="#ffe4a0" opacity="0.28"/>
<circle cx="104.9" cy="86.8" r="1.1" fill="#623a13" opacity="0.35"/>
<circle cx="36.4" cy="43.0" r="0.8" fill="#ffe4a0" opacity="0.35"/>
<circle cx="50.9" cy="106.3" r="1.1" fill="#ffe4a0" opacity="0.26"/>
<circle cx="76.5" cy="107.8" r="1.0" fill="#623a13" opacity="0.22"/>
<circle cx="98.6" cy="33.2" r="0.7" fill="#ffe4a0" opacity="0.34"/>
<circle cx="98.7" cy="44.6" r="0.6" fill="#ffe4a0" opacity="0.28"/>
<circle cx="98.3" cy="81.1" r="1.1" fill="#623a13" opacity="0.30"/>
<circle cx="96.1" cy="73.3" r="0.7" fill="#ffe4a0" opacity="0.24"/>
<circle cx="63.0" cy="65.8" r="1.1" fill="#ffe4a0" opacity="0.21"/>
<circle cx="20.9" cy="85.8" r="0.6" fill="#623a13" opacity="0.24"/>
<circle cx="25.7" cy="95.3" r="0.6" fill="#ffe4a0" opacity="0.22"/>
<circle cx="94.4" cy="63.4" r="0.6" fill="#ffe4a0" opacity="0.33"/>
<circle cx="55.2" cy="49.4" r="1.2" fill="#623a13" opacity="0.31"/>
<circle cx="88.7" cy="38.5" r="1.1" fill="#ffe4a0" opacity="0.27"/>
<circle cx="97.0" cy="50.1" r="1.0" fill="#ffe4a0" opacity="0.31"/>
<circle cx="52.8" cy="78.2" r="1.0" fill="#623a13" opacity="0.35"/>
<circle cx="106.0" cy="91.1" r="0.5" fill="#ffe4a0" opacity="0.28"/>
<circle cx="82.5" cy="22.5" r="0.8" fill="#ffe4a0" opacity="0.33"/>
<circle cx="104.5" cy="104.7" r="0.5" fill="#623a13" opacity="0.28"/>
<circle cx="100.5" cy="78.0" r="0.7" fill="#ffe4a0" opacity="0.17"/>
<circle cx="106.0" cy="98.2" r="0.9" fill="#ffe4a0" opacity="0.23"/>
<circle cx="96.8" cy="93.9" r="1.0" fill="#623a13" opacity="0.27"/>
<circle cx="45.9" cy="43.1" r="0.7" fill="#ffe4a0" opacity="0.22"/>
<circle cx="66.0" cy="25.2" r="1.0" fill="#ffe4a0" opacity="0.23"/>
<circle cx="30.0" cy="39.0" r="0.7" fill="#623a13" opacity="0.24"/>
<circle cx="92.2" cy="23.8" r="0.6" fill="#ffe4a0" opacity="0.22"/>
<circle cx="31.7" cy="87.4" r="0.5" fill="#ffe4a0" opacity="0.17"/>
<circle cx="69.6" cy="86.1" r="1.1" fill="#623a13" opacity="0.27"/>
<circle cx="46.7" cy="100.4" r="1.0" fill="#ffe4a0" opacity="0.25"/>
<circle cx="70.3" cy="105.7" r="1.2" fill="#ffe4a0" opacity="0.34"/>
<circle cx="27.3" cy="46.0" r="0.7" fill="#623a13" opacity="0.19"/>
<circle cx="90.2" cy="20.0" r="1.1" fill="#ffe4a0" opacity="0.27"/>
<circle cx="75.4" cy="54.7" r="1.1" fill="#ffe4a0" opacity="0.27"/>
<circle cx="103.7" cy="104.4" r="1.0" fill="#623a13" opacity="0.35"/>
<circle cx="63.0" cy="49.9" r="1.1" fill="#ffe4a0" opacity="0.26"/>
<circle cx="44.9" cy="80.7" r="0.8" fill="#ffe4a0" opacity="0.18"/>
<circle cx="97.8" cy="63.0" r="1.2" fill="#623a13" opacity="0.26"/>
<circle cx="107.7" cy="42.3" r="0.6" fill="#ffe4a0" opacity="0.26"/>
<circle cx="90.7" cy="94.8" r="0.9" fill="#ffe4a0" opacity="0.18"/>
<circle cx="53.4" cy="17.4" r="0.7" fill="#623a13" opacity="0.34"/>
<circle cx="48.7" cy="82.5" r="0.9" fill="#ffe4a0" opacity="0.19"/>
<circle cx="82.8" cy="21.8" r="0.5" fill="#ffe4a0" opacity="0.27"/>
<circle cx="26.7" cy="108.5" r="0.7" fill="#623a13" opacity="0.28"/>
<circle cx="110.5" cy="24.6" r="1.2" fill="#ffe4a0" opacity="0.17"/>
<circle cx="74.1" cy="78.3" r="1.2" fill="#ffe4a0" opacity="0.23"/>
<circle cx="108.7" cy="77.7" r="0.8" fill="#623a13" opacity="0.19"/>
<circle cx="37.6" cy="49.8" r="0.7" fill="#ffe4a0" opacity="0.23"/>
<circle cx="94.8" cy="50.7" r="0.9" fill="#ffe4a0" opacity="0.17"/>
<circle cx="28.1" cy="83.6" r="1.1" fill="#623a13" opacity="0.22"/>
<circle cx="17.2" cy="36.8" r="0.7" fill="#ffe4a0" opacity="0.23"/>
<circle cx="70.1" cy="43.6" r="0.9" fill="#ffe4a0" opacity="0.31"/>
<circle cx="92.3" cy="86.7" r="0.9" fill="#623a13" opacity="0.21"/>
<circle cx="98.1" cy="42.4" r="1.1" fill="#ffe4a0" opacity="0.24"/>
<circle cx="76.9" cy="62.9" r="0.9" fill="#ffe4a0" opacity="0.22"/>
<circle cx="71.8" cy="86.2" r="0.7" fill="#623a13" opacity="0.27"/>
<circle cx="59.6" cy="60.1" r="0.7" fill="#ffe4a0" opacity="0.26"/>
<circle cx="84.9" cy="31.0" r="0.5" fill="#ffe4a0" opacity="0.32"/>
<circle cx="22.8" cy="91.7" r="1.0" fill="#623a13" opacity="0.20"/>
<circle cx="77.6" cy="38.8" r="1.1" fill="#ffe4a0" opacity="0.20"/>
<circle cx="25.6" cy="17.6" r="1.0" fill="#ffe4a0" opacity="0.20"/>
<circle cx="45.4" cy="109.7" r="1.0" fill="#623a13" opacity="0.30"/>
<circle cx="71.6" cy="76.8" r="0.4" fill="#ffe4a0" opacity="0.31"/>
<circle cx="46.9" cy="97.8" r="0.7" fill="#ffe4a0" opacity="0.33"/>
<circle cx="14.0" cy="110.1" r="0.5" fill="#623a13" opacity="0.26"/>
<circle cx="62.2" cy="110.7" r="1.0" fill="#ffe4a0" opacity="0.35"/>
<circle cx="104.6" cy="55.7" r="0.5" fill="#ffe4a0" opacity="0.19"/>
<circle cx="84.9" cy="107.2" r="0.9" fill="#623a13" opacity="0.23"/>
<circle cx="73.7" cy="78.4" r="0.6" fill="#ffe4a0" opacity="0.29"/>
<circle cx="33.9" cy="16.7" r="0.5" fill="#ffe4a0" opacity="0.25"/>
<circle cx="83.6" cy="36.1" r="0.7" fill="#623a13" opacity="0.29"/>
<circle cx="40.3" cy="65.2" r="0.9" fill="#ffe4a0" opacity="0.24"/>
<circle cx="34.8" cy="81.9" r="1.0" fill="#ffe4a0" opacity="0.20"/>
<circle cx="94.7" cy="78.2" r="1.1" fill="#623a13" opacity="0.31"/>
<circle cx="63.4" cy="84.1" r="0.7" fill="#ffe4a0" opacity="0.28"/>
<circle cx="22.2" cy="47.9" r="0.8" fill="#ffe4a0" opacity="0.33"/>
<circle cx="82.4" cy="103.1" r="1.1" fill="#623a13" opacity="0.34"/>
<circle cx="75.8" cy="74.4" r="0.8" fill="#ffe4a0" opacity="0.20"/>
<circle cx="93.7" cy="73.8" r="0.5" fill="#ffe4a0" opacity="0.21"/>
<circle cx="36.1" cy="84.8" r="0.9" fill="#623a13" opacity="0.20"/>
<circle cx="82.8" cy="69.2" r="0.6" fill="#ffe4a0" opacity="0.24"/>
<circle cx="113.3" cy="27.8" r="0.6" fill="#ffe4a0" opacity="0.27"/>
<circle cx="98.0" cy="104.3" r="0.7" fill="#623a13" opacity="0.31"/>
<circle cx="25.9" cy="51.8" r="1.1" fill="#ffe4a0" opacity="0.29"/>
<circle cx="58.7" cy="72.7" r="0.8" fill="#ffe4a0" opacity="0.26"/>
<circle cx="102.4" cy="109.6" r="0.6" fill="#623a13" opacity="0.30"/>
<circle cx="108.5" cy="73.5" r="0.8" fill="#ffe4a0" opacity="0.23"/>
    <path d="m48 55 8-3m17 25 7-3m-37-8 5-2m30-10 9-2m-29 29 5-2" fill="none" stroke="#ffe4a0" stroke-width=".8" opacity=".5"/>
  </g>
  <path d="M64 8 80 43 119 47 91 74 98 113 64 94 30 113 37 74 9 47 48 43Z" fill="none" stroke="#ffe4a0" stroke-width="1.5" stroke-linejoin="round" opacity=".85"/>
  <path d="m14 48 36-3L64 13" fill="none" stroke="#ffe4a0" stroke-width="2.5" stroke-linecap="round" opacity=".9"/>
</svg>
